<svg xmlns="http://www.w3.org/2000/svg" viewBox="0 0 24 24">
<path d="M1.5 5.5H22.5" stroke="#1A3260" stroke-width="1.3" stroke-linecap="round"/>
<circle cx="18.5" cy="5.5" r="2" fill="#F0AC3D"/>
<path d="M1.5 11.5c2.6-1.9 5.2-1.9 7.8 0s5.2 1.9 7.8 0" stroke="#8B6FC9" stroke-width="1.6" stroke-linecap="round" fill="none" opacity="0.55"/>
<path d="M1.5 22V17.8C2 15.6 3 14 4.6 13.1C4 15 4.4 16.4 5.6 17C5 14.3 6.3 12 8.6 11.1C7.9 13 8.4 14.4 9.7 14.9C9 12 10.6 9.6 8.9 8.4C11.6 8.7 13.4 11 12.7 13.6C15.8 12 19 13.2 20.8 16.3C21.6 17.6 22 19 22 20.4V22Z" fill="#163A63"/>
<path d="M2 17.9C3 15.9 4.6 14.6 6.6 14.4" stroke="#FFFDF8" stroke-width="1" stroke-linecap="round" fill="none" opacity="0.6"/>
<path d="M9.6 12.4C10.6 12.9 11.6 13.6 12.4 14.6" stroke="#FFFDF8" stroke-width="1" stroke-linecap="round" fill="none" opacity="0.6"/>
</svg>
