<svg xmlns="http://www.w3.org/2000/svg" viewBox="0 0 24 24">
<path d="M3.5 8.4C3.5 6.5 4.6 5 6.2 5H8L6.5 8.4Z" fill="#1A3260"/>
<path d="M20.5 8.4C20.5 6.5 19.4 5 17.8 5H16L17.5 8.4Z" fill="#1A3260"/>
<rect x="6.4" y="4.3" width="11.2" height="2.6" rx="1.2" fill="#1A3260"/>
<path d="M9.4 6.9C9.4 10.6 9 14 7.6 17.4H16.4C15 14 14.6 10.6 14.6 6.9Z" fill="#1E6FA8"/>
<path d="M10.8 8.4V15.6" stroke="#FFFDF8" stroke-width="1" stroke-linecap="round" opacity="0.75"/>
<path d="M13.2 8.4V15.6" stroke="#FFFDF8" stroke-width="1" stroke-linecap="round" opacity="0.75"/>
<ellipse cx="12" cy="18.8" rx="7" ry="2.2" fill="#3FA6A0"/>
<path d="M6.6 18.4c1.3.9 2.6.9 3.9 0s2.6-.9 3.9 0 2.6.9 3.9 0" stroke="#FFFDF8" stroke-width="1.1" stroke-linecap="round" fill="none" opacity="0.8"/>
<path d="M4.6 16.8L2.8 19.4" stroke="#1A3260" stroke-width="1.3" stroke-linecap="round"/>
<path d="M19.4 16.8L21.2 19.4" stroke="#1A3260" stroke-width="1.3" stroke-linecap="round"/>
</svg>
